HIERARCHY
ROOT Hips
{
	OFFSET 0.000000 89.005402 0.000000
	CHANNELS 6 Xposition Yposition Zposition Xrotation Yrotation Zrotation
	JOINT Spine
	{
		OFFSET 0.116900 10.681000 0.373400
		CHANNELS 3 Xrotation Yrotation Zrotation
		JOINT Spine1
		{
			OFFSET 0.000000 13.840401 0.053500
			CHANNELS 3 Xrotation Yrotation Zrotation
			JOINT Spine2
			{
				OFFSET 0.000000 14.712700 -0.366200
				CHANNELS 3 Xrotation Yrotation Zrotation
				JOINT Neck
				{
					OFFSET 0.000000 35.415497 -3.314200
					CHANNELS 3 Xrotation Yrotation Zrotation
					JOINT Head
					{
						OFFSET 0.000000 16.899200 1.218300
						CHANNELS 3 Xrotation Yrotation Zrotation
						JOINT HeadTop_End
						{
							OFFSET 0.000000 22.206207 2.192500
							CHANNELS 3 Xrotation Yrotation Zrotation
							End Site
							{
								OFFSET 0.000000 22.314178 0.000000
							}
						}
					}
				}
				JOINT LeftShoulder
				{
					OFFSET 12.896400 26.716293 -4.548400
					CHANNELS 3 Xrotation Yrotation Zrotation
					JOINT LeftArm
					{
						OFFSET 19.027000 -4.857010 -1.718400
						CHANNELS 3 Xrotation Yrotation Zrotation
						JOINT LeftForeArm
						{
							OFFSET 24.179897 0.000000 0.000000
							CHANNELS 3 Xrotation Yrotation Zrotation
							JOINT LeftHand
							{
								OFFSET 27.156403 0.000000 0.000000
								CHANNELS 3 Xrotation Yrotation Zrotation
								JOINT LeftHandIndex1
								{
									OFFSET 16.441200 0.000000 0.000000
									CHANNELS 3 Xrotation Yrotation Zrotation
									JOINT LeftHandIndex2
									{
										OFFSET 4.821899 0.000000 0.000000
										CHANNELS 3 Xrotation Yrotation Zrotation
										JOINT LeftHandIndex3
										{
											OFFSET 6.386497 0.000000 0.000000
											CHANNELS 3 Xrotation Yrotation Zrotation
											JOINT LeftHandIndex4
											{
												OFFSET 5.188988 0.000000 0.000000
												CHANNELS 3 Xrotation Yrotation Zrotation
												End Site
												{
													OFFSET -0.178703 5.185913 0.000177
												}
											}
										}
									}
								}
								JOINT LeftHandThumb1
								{
									OFFSET 6.534897 -5.032593 5.900300
									CHANNELS 3 Xrotation Yrotation Zrotation
									JOINT LeftHandThumb2
									{
										OFFSET 3.818176 -2.204422 2.204423
										CHANNELS 3 Xrotation Yrotation Zrotation
										JOINT LeftHandThumb3
										{
											OFFSET 3.252098 -1.877594 1.877601
											CHANNELS 3 Xrotation Yrotation Zrotation
											JOINT LeftHandThumb4
											{
												OFFSET 5.251778 -3.032120 3.032117
												CHANNELS 3 Xrotation Yrotation Zrotation
												End Site
												{
													OFFSET 0.000023 6.780014 0.000000
												}
											}
										}
									}
								}
							}
						}
					}
				}
				JOINT RightShoulder
				{
					OFFSET -12.896300 26.716293 -4.548400
					CHANNELS 3 Xrotation Yrotation Zrotation
					JOINT RightArm
					{
						OFFSET -19.027000 -4.857010 -1.718400
						CHANNELS 3 Xrotation Yrotation Zrotation
						JOINT RightForeArm
						{
							OFFSET -24.179897 0.000000 0.000000
							CHANNELS 3 Xrotation Yrotation Zrotation
							JOINT RightHand
							{
								OFFSET -27.156403 0.000000 0.000000
								CHANNELS 3 Xrotation Yrotation Zrotation
								JOINT RightHandThumb1
								{
									OFFSET -6.591202 -4.852203 5.988100
									CHANNELS 3 Xrotation Yrotation Zrotation
									JOINT RightHandThumb2
									{
										OFFSET -3.818176 -2.204422 2.204423
										CHANNELS 3 Xrotation Yrotation Zrotation
										JOINT RightHandThumb3
										{
											OFFSET -3.252098 -1.877594 1.877601
											CHANNELS 3 Xrotation Yrotation Zrotation
											JOINT RightHandThumb4
											{
												OFFSET -5.251778 -3.032120 3.032117
												CHANNELS 3 Xrotation Yrotation Zrotation
												End Site
												{
													OFFSET -0.000023 6.780014 0.000000
												}
											}
										}
									}
								}
								JOINT RightHandIndex1
								{
									OFFSET -16.029404 0.000000 0.000000
									CHANNELS 3 Xrotation Yrotation Zrotation
									JOINT RightHandIndex2
									{
										OFFSET -5.213303 0.000000 0.000000
										CHANNELS 3 Xrotation Yrotation Zrotation
										JOINT RightHandIndex3
										{
											OFFSET -6.386528 0.000000 0.000000
											CHANNELS 3 Xrotation Yrotation Zrotation
											JOINT RightHandIndex4
											{
												OFFSET -5.189026 0.000000 0.000000
												CHANNELS 3 Xrotation Yrotation Zrotation
												End Site
												{
													OFFSET 0.236702 5.183624 0.001972
												}
											}
										}
									}
								}
							}
						}
					}
				}
			}
		}
	}
	JOINT LeftUpLeg
	{
		OFFSET 14.073000 -7.904099 -1.463000
		CHANNELS 3 Xrotation Yrotation Zrotation
		JOINT LeftLeg
		{
			OFFSET -0.109806 -34.073280 4.093200
			CHANNELS 3 Xrotation Yrotation Zrotation
			JOINT LeftFoot
			{
				OFFSET 0.109806 -29.899420 -6.319000
				CHANNELS 3 Xrotation Yrotation Zrotation
				JOINT LeftToeBase
				{
					OFFSET 1.551100 -14.988700 20.535801
					CHANNELS 3 Xrotation Yrotation Zrotation
					JOINT LeftToe_End
					{
						OFFSET 0.221200 0.570800 13.248301
						CHANNELS 3 Xrotation Yrotation Zrotation
						End Site
						{
							OFFSET 0.000000 13.262435 0.000000
						}
					}
				}
			}
		}
	}
	JOINT RightUpLeg
	{
		OFFSET -13.839300 -7.904099 -1.463000
		CHANNELS 3 Xrotation Yrotation Zrotation
		JOINT RightLeg
		{
			OFFSET 0.109694 -34.073219 4.093300
			CHANNELS 3 Xrotation Yrotation Zrotation
			JOINT RightFoot
			{
				OFFSET -0.109694 -29.899384 -6.319200
				CHANNELS 3 Xrotation Yrotation Zrotation
				JOINT RightToeBase
				{
					OFFSET -1.551100 -14.988700 20.535801
					CHANNELS 3 Xrotation Yrotation Zrotation
					JOINT RightToe_End
					{
						OFFSET -0.221200 0.570900 13.248299
						CHANNELS 3 Xrotation Yrotation Zrotation
						End Site
						{
							OFFSET 0.000000 13.262440 0.000000
						}
					}
				}
			}
		}
	}
}
MOTION
Frames: 4
Frame Time: 0.033333
-1.023718 85.189911 -1.462824 11.548666 -15.301444 -1.401320 5.054955 -2.668386 0.324779 2.137646 0.032121 5.521702 2.120286 0.541867 5.427392 0.308112 1.365599 -1.737483 -28.392608 22.512899 -13.549938 0.000000 -0.000000 0.000000 -11.847530 -14.442638 -0.848477 63.263002 -31.448428 -70.914494 -0.000380 -86.549575 -0.000296 36.602280 -10.998211 63.891591 0.339561 4.671345 -7.844276 0.387026 2.823568 -20.566236 0.034657 0.816846 -10.169807 0.000001 -0.000004 -0.000000 19.204110 -53.172101 28.025981 5.388942 12.290163 -9.681686 4.880450 -5.958831 -5.224063 -0.000001 0.000002 0.000000 4.203661 -10.988629 -9.637238 -67.980586 -26.553798 42.589248 0.000019 146.986982 -0.000012 -51.943254 -6.725405 66.007918 18.156758 1.690349 -8.613459 1.283920 -32.757307 3.088960 4.829129 -20.613893 -0.705852 -0.000000 0.000000 0.000000 0.999443 -8.382327 11.893822 0.091874 -1.712048 9.154561 0.115478 1.908872 -6.820449 0.000001 0.000001 -0.000000 -26.821540 9.141253 18.378005 23.108400 9.062289 1.073493 -1.098297 21.308624 -14.160388 -0.000057 -0.000000 0.000003 -0.000000 -0.000000 -0.000000 -17.726603 -0.217442 10.941598 12.356254 -5.140448 4.798199 -4.157143 11.643238 -10.947169 -1.813569 -0.000001 -0.000003 -0.000000 -0.000000 0.000000 
-1.020776 85.207367 -1.416248 11.722112 -15.146423 -1.309281 5.079318 -2.826620 0.467034 2.161320 -0.044294 5.548932 2.143034 0.463867 5.455243 0.549986 1.254466 -2.231679 -26.699017 22.816973 -14.445370 0.000001 -0.000000 0.000000 -11.601706 -14.328818 -1.005881 62.984207 -31.202924 -71.060161 -0.000650 -86.403122 -0.000684 36.644590 -11.225824 64.023543 0.339571 4.671361 -7.844280 0.387036 2.823562 -20.566222 0.034614 0.816846 -10.169818 0.000001 -0.000001 0.000001 19.204076 -53.172104 28.025938 5.388927 12.290151 -9.681698 4.880457 -5.958838 -5.224060 0.000002 0.000002 0.000001 4.261614 -10.880685 -9.295845 -67.928000 -29.094355 42.853522 -0.000008 146.726889 -0.000011 -52.092425 -5.432623 65.198793 18.010331 2.231245 -7.767552 1.283779 -32.756921 3.088965 4.829092 -20.613721 -0.705832 0.000000 -0.000001 -0.000000 1.181962 -8.584814 15.700841 0.106181 -1.796827 10.005983 0.076562 1.789085 -5.614408 -0.000001 -0.000001 0.000000 -26.903415 9.109087 18.254201 22.913536 9.068231 1.044870 -1.023817 21.239850 -14.087177 -0.000062 -0.000002 -0.000001 -0.000000 -0.000002 -0.000000 -17.847711 -0.229512 10.851944 12.317036 -5.125075 4.795390 -4.195852 11.516067 -10.929349 -1.810455 0.000003 -0.000000 0.000000 -0.000001 -0.000000 
-1.020652 85.217163 -1.385345 11.910551 -15.078783 -1.206171 5.090239 -2.962165 0.574386 2.182367 -0.105963 5.579579 2.163180 0.402075 5.486171 0.763679 1.192999 -2.671720 -25.171453 23.097063 -15.289539 -0.000000 -0.000000 0.000001 -11.345320 -14.173019 -1.148051 62.739256 -31.024085 -71.082803 -0.000730 -86.293976 -0.000789 36.650850 -11.394215 64.124152 0.339561 4.671346 -7.844281 0.387034 2.823601 -20.566229 0.034621 0.816833 -10.169825 -0.000000 0.000000 0.000001 19.204096 -53.172097 28.025969 5.388933 12.290151 -9.681699 4.880450 -5.958831 -5.224060 -0.000001 0.000002 0.000001 4.297141 -10.758105 -9.081974 -67.289282 -29.542286 43.752860 -0.000000 146.054334 -0.000004 -51.309552 -3.805162 64.188082 17.870220 2.743727 -7.003930 1.284235 -32.758079 3.088966 4.829196 -20.614247 -0.705895 0.000000 -0.000000 -0.000000 1.404774 -8.777621 19.414582 0.121698 -1.881092 10.854479 0.040424 1.669363 -4.416755 0.000001 -0.000000 -0.000001 -26.999669 9.084043 18.160565 22.762273 9.071623 0.998461 -0.966373 21.242081 -14.026488 -0.000035 0.000000 -0.000003 -0.000000 0.000000 -0.000000 -18.019200 -0.226265 10.774512 12.310620 -5.112121 4.795359 -4.214936 11.453261 -10.917504 -1.811355 0.000005 -0.000002 0.000000 0.000001 0.000000 
-1.027344 85.219269 -1.367990 12.110686 -15.090716 -1.098626 5.088800 -3.037431 0.633963 2.202348 -0.135966 5.606309 2.182565 0.372960 5.512847 0.941825 1.172887 -3.029709 -23.936605 23.276714 -16.004935 0.000000 -0.000000 0.000000 -11.080093 -14.000955 -1.274449 62.514529 -30.850103 -71.010868 -0.000428 -86.248835 -0.000451 36.679267 -11.517372 64.118107 0.339567 4.671360 -7.844275 0.387017 2.823576 -20.566237 0.034639 0.816845 -10.169816 -0.000002 0.000002 0.000002 19.204076 -53.172121 28.025941 5.388947 12.290164 -9.681694 4.880452 -5.958836 -5.224060 -0.000002 0.000002 0.000000 4.311361 -10.628795 -8.992530 -66.537920 -28.735685 44.869732 0.000002 145.321591 -0.000007 -49.994277 -1.870607 62.853764 17.765879 3.103018 -6.433449 1.285012 -32.760104 3.088952 4.829391 -20.615063 -0.706000 0.000000 -0.000000 0.000000 1.662677 -9.042942 22.868879 0.138174 -1.963630 11.687912 0.007198 1.550420 -3.234225 -0.000000 -0.000000 0.000001 -27.111114 9.064676 18.099853 22.655500 9.068085 0.947257 -0.922879 21.311648 -13.988327 0.000011 -0.000002 -0.000005 0.000000 -0.000002 0.000000 -18.227736 -0.206293 10.714135 12.324037 -5.116709 4.804007 -4.211466 11.461668 -10.916284 -1.810461 0.000004 -0.000001 -0.000000 0.000000 0.000000 
